<svg width="200" height="44" viewBox="0 0 200 44" fill="none" xmlns="http://www.w3.org/2000/svg">
<g clip-path="url(#clip0_132_200)">
<path d="M61.5124 32.9111H53.8778L52.0452 38.3248H48.8105L56.0423 18.2961H59.4011L66.6328 38.3248H63.3433L61.5124 32.9111ZM54.6691 30.4129H60.7211L57.7362 21.6275H57.6524L54.6691 30.4129Z" fill="white"/>
<path d="M82.2357 31.0238C82.2357 35.5639 79.8069 38.4779 76.1419 38.4779C74.0596 38.4779 72.4076 37.5463 71.5469 35.9233H71.4792V43.1551H68.4814V23.7227H71.3825V26.1532H71.4373C72.2706 24.5834 74.0467 23.5712 76.0871 23.5712C79.794 23.5696 82.2357 26.4981 82.2357 31.0238ZM79.1542 31.0238C79.1542 28.0679 77.6279 26.1242 75.2957 26.1242C73.0055 26.1242 71.4647 28.1082 71.4647 31.0238C71.4647 33.9667 73.0055 35.9378 75.2957 35.9378C77.6279 35.9378 79.1542 34.0086 79.1542 31.0238Z" fill="white"/>
<path d="M98.2965 31.0238C98.2965 35.5639 95.8676 38.4779 92.2026 38.4779C90.1203 38.4779 88.4683 37.5463 87.6076 35.9233H87.5383V43.1551H84.5405V23.7227H87.4416V26.1532H87.4964C88.3297 24.5834 90.1058 23.5712 92.1462 23.5712C95.8531 23.5696 98.2965 26.4981 98.2965 31.0238ZM95.2149 31.0238C95.2149 28.0679 93.6886 26.1242 91.3564 26.1242C89.0662 26.1242 87.5254 28.1082 87.5254 31.0238C87.5254 33.9667 89.0662 35.9378 91.3564 35.9378C93.6886 35.9378 95.2149 34.0086 95.2149 31.0238Z" fill="white"/>
<path d="M100.712 18.2961H103.71V38.3248H100.712V18.2961Z" fill="white"/>
<path d="M119.312 34.036C118.909 36.6857 116.327 38.5053 113.024 38.5053C108.777 38.5053 106.139 35.659 106.139 31.0931C106.139 26.5126 108.79 23.5422 112.899 23.5422C116.937 23.5422 119.478 26.3192 119.478 30.7449V31.7716H109.164V31.9537C109.164 34.4518 110.732 36.091 113.092 36.091C114.758 36.091 116.062 35.2996 116.465 34.036H119.312ZM109.179 29.678H116.48C116.41 27.4425 114.981 25.971 112.899 25.971C110.831 25.971 109.332 27.4699 109.179 29.678Z" fill="white"/>
<path d="M145.337 38.3248V23.5841H145.241L139.202 38.1733H136.897L130.845 23.5841H130.748V38.3248H127.916V18.2961H131.51L137.994 34.1053H138.106L144.573 18.2961H148.182V38.3248H145.337Z" fill="white"/>
<path d="M164.149 38.3248H161.277V35.8137H161.206C160.373 37.5624 158.918 38.4924 156.681 38.4924C153.502 38.4924 151.56 36.4375 151.56 33.0932V23.7227H154.558V32.5097C154.558 34.7307 155.614 35.9088 157.68 35.9088C159.846 35.9088 161.15 34.4099 161.15 32.1326V23.7211H164.148L164.149 38.3248Z" fill="white"/>
<path d="M172.675 23.5551C175.908 23.5551 178.227 25.3473 178.295 27.9293H175.478C175.352 26.6367 174.256 25.8469 172.591 25.8469C170.967 25.8469 169.884 26.5964 169.884 27.7343C169.884 28.6078 170.606 29.1912 172.119 29.5668L174.575 30.1357C177.518 30.8448 178.629 31.9279 178.629 34.065C178.629 36.7018 176.131 38.5069 172.564 38.5069C169.121 38.5069 166.802 36.7437 166.58 34.0779H169.55C169.759 35.4801 170.883 36.2312 172.702 36.2312C174.491 36.2312 175.618 35.4946 175.618 34.3294C175.618 33.4284 175.064 32.9417 173.536 32.5533L170.926 31.915C168.29 31.2768 166.957 29.931 166.957 27.9051C166.957 25.3199 169.274 23.5551 172.675 23.5551Z" fill="white"/>
<path d="M180.966 19.8772C180.966 18.9053 181.743 18.1559 182.7 18.1559C183.672 18.1559 184.449 18.9053 184.449 19.8772C184.449 20.8216 183.672 21.584 182.7 21.584C181.743 21.584 180.966 20.8216 180.966 19.8772ZM181.2 23.7227H184.197V38.3248H181.2V23.7227Z" fill="white"/>
<path d="M197.114 28.7464C196.849 27.2072 195.642 26.0532 193.671 26.0532C191.366 26.0532 189.84 27.9841 189.84 31.0221C189.84 34.1311 191.379 36.0055 193.698 36.0055C195.558 36.0055 196.78 35.074 197.114 33.3817H200C199.666 36.4504 197.209 38.5053 193.671 38.5053C189.506 38.5053 186.786 35.659 186.786 31.0221C186.786 26.4836 189.506 23.5406 193.644 23.5406C197.391 23.5406 199.723 25.9001 199.973 28.7448H197.114V28.7464Z" fill="white"/>
<path d="M39.7528 5.40406C39.3579 4.40319 38.4489 2.99294 37.1595 2.00013C36.4149 1.42636 35.5253 0.878381 34.3036 0.515746C33.0013 0.130548 31.3977 0 29.4024 0H11.153C9.15611 0 7.55246 0.130548 6.25182 0.515746C5.03014 0.878381 4.14048 1.42636 3.39587 2.00013C2.1065 2.99294 1.19589 4.40319 0.802631 5.40406C0.00805853 7.42191 0 9.71054 0 11.153V29.4024C0 30.8433 0.00805853 33.1335 0.802631 35.1513C1.1975 36.1522 2.1065 37.5625 3.39587 38.5553C4.14048 39.129 5.03014 39.677 6.25182 40.0397C7.55408 40.4249 9.15773 40.5554 11.153 40.5554H29.4024C31.3977 40.5554 33.0013 40.4249 34.3036 40.0397C35.5253 39.677 36.4133 39.129 37.1595 38.5553C38.4489 37.5625 39.3595 36.1522 39.7528 35.1513C40.5474 33.1335 40.5554 30.8449 40.5554 29.4024V11.153C40.5554 9.71054 40.5474 7.42191 39.7528 5.40406ZM29.5845 27.8938C29.4798 28.3935 29.288 28.8625 28.993 29.2847C28.6997 29.707 28.3225 30.0519 27.8842 30.3114C27.4393 30.5741 26.9735 30.724 26.4755 30.8239C25.5407 31.0125 24.9009 31.0544 24.3013 30.9335C23.7211 30.8175 23.2312 30.5499 22.8379 30.1905C22.2561 29.657 21.8934 28.9366 21.8145 28.1823C21.721 27.2991 22.0159 26.3563 22.6783 25.6616C23.0136 25.3119 23.4326 25.033 23.9935 24.8155C24.5802 24.5882 25.2281 24.4512 26.2241 24.2514C26.4868 24.1982 26.7479 24.145 27.0106 24.0934C27.3555 24.0241 27.6521 23.9355 27.8906 23.6438C28.1308 23.3504 28.1356 22.9975 28.1356 22.6445V13.7076C28.1356 13.0242 27.8294 12.8373 27.1766 12.963C26.7108 13.0532 16.6908 15.0743 16.6908 15.0743C16.1251 15.2113 15.9269 15.395 15.9269 16.0961V29.1913C15.9269 29.7054 15.8995 30.1599 15.7915 30.674C15.6868 31.1737 15.495 31.6427 15.2 32.0649C14.9067 32.4872 14.5295 32.8321 14.0912 33.0916C13.6463 33.3543 13.1805 33.5106 12.6825 33.6106C11.7477 33.7991 11.1079 33.841 10.5083 33.7202C9.92812 33.6041 9.43816 33.3301 9.04491 32.9691C8.46308 32.4356 8.12462 31.7152 8.04404 30.9609C7.95056 30.0777 8.22132 29.1348 8.88373 28.4402C9.21897 28.0888 9.63801 27.8116 10.1989 27.594C10.7856 27.3668 11.4335 27.2298 12.4295 27.03C12.6922 26.9768 12.9549 26.9236 13.216 26.872C13.5609 26.8027 13.8575 26.7141 14.096 26.4223C14.3345 26.1306 14.3619 25.7809 14.3619 25.4295C14.3619 22.659 14.3619 10.3488 14.3619 10.3488C14.3619 10.1457 14.3797 10.0103 14.3893 9.94263C14.4377 9.62512 14.565 9.35274 14.7955 9.15934C14.9857 8.99816 15.2323 8.88857 15.5465 8.82088L15.553 8.82249L27.6069 6.39042C27.7117 6.36947 28.582 6.21475 28.6803 6.20669C29.3315 6.15028 29.6973 6.57899 29.6973 7.27203V26.403C29.6973 26.9171 29.6925 27.3781 29.5845 27.8938Z" fill="white"/>
<path d="M55.1897 9.55903H51.4699L50.569 12.1474H49.0137L52.5369 2.38855H54.1679L57.6927 12.1474H56.0826L55.1897 9.55903ZM51.8535 8.28739H54.8029L53.3895 4.16143H53.275L51.8535 8.28739Z" fill="white"/>
<path d="M59.4172 4.78354H60.8178V5.95364H60.9258C61.2836 5.1349 62.0137 4.64333 63.1226 4.64333C64.7665 4.64333 65.6723 5.62969 65.6723 7.38161V12.149H64.2185V7.74586C64.2185 6.56287 63.706 5.97298 62.6294 5.97298C61.5544 5.97298 60.871 6.69019 60.871 7.83934V12.1474H59.4172V4.78354Z" fill="white"/>
<path d="M67.9802 1.90987H69.4227V5.96815H69.5371C69.8949 5.14295 70.6718 4.64977 71.7822 4.64977C73.352 4.64977 74.3175 5.64419 74.3175 7.39612V12.149H72.8653V7.75231C72.8653 6.57737 72.3173 5.98104 71.2874 5.98104C70.098 5.98104 69.4356 6.73048 69.4356 7.84579V12.1474H67.9818L67.9802 1.90987Z" fill="white"/>
<path d="M76.1935 8.46146C76.1935 6.08741 77.5183 4.64171 79.6699 4.64171C81.8135 4.64171 83.1383 6.08741 83.1383 8.46146C83.1383 10.8484 81.8199 12.2893 79.6699 12.2893C77.5119 12.2893 76.1935 10.85 76.1935 8.46146ZM77.3233 2.87045C77.3233 2.35631 77.7149 1.95822 78.2291 1.95822C78.7351 1.95822 79.1284 2.35631 79.1284 2.87045C79.1284 3.38458 78.7368 3.77623 78.2291 3.77623C77.7149 3.77623 77.3233 3.38458 77.3233 2.87045ZM81.6459 8.46146C81.6459 6.86587 80.9287 5.93269 79.6699 5.93269C78.4047 5.93269 77.694 6.86587 77.694 8.46146C77.694 10.0716 78.4031 10.9983 79.6699 10.9983C80.9271 10.9999 81.6459 10.0651 81.6459 8.46146ZM80.2115 2.87045C80.2115 2.35631 80.6096 1.95822 81.1172 1.95822C81.6249 1.95822 82.0182 2.35631 82.0182 2.87045C82.0182 3.38458 81.6265 3.77623 81.1172 3.77623C80.6096 3.77623 80.2115 3.38458 80.2115 2.87045Z" fill="white"/>
<path d="M85.0822 4.78354H86.4827V5.91334H86.5907C86.8002 5.18969 87.619 4.66266 88.5779 4.66266C88.7939 4.66266 89.0711 4.68361 89.2259 4.72229V6.15671C89.105 6.11642 88.6714 6.06807 88.4152 6.06807C87.3111 6.06807 86.5343 6.76594 86.5343 7.79904V12.1474H85.0822V4.78354Z" fill="white"/>
<path d="M96.8701 10.1602C96.5381 11.4786 95.3615 12.2893 93.6789 12.2893C91.5676 12.2893 90.2766 10.8436 90.2766 8.49046C90.2766 6.13576 91.595 4.64171 93.6709 4.64171C95.7193 4.64171 96.9587 6.04067 96.9587 8.35508V8.86116H91.7562V8.94335C91.8029 10.2343 92.554 11.0531 93.7176 11.0531C94.5976 11.0531 95.1988 10.7356 95.4695 10.1602H96.8701ZM91.7562 7.78615H95.4776C95.4437 6.62894 94.7394 5.87789 93.6644 5.87789C92.5894 5.87789 91.8384 6.63539 91.7562 7.78615Z" fill="white"/>
<path d="M98.9009 4.78354H100.301V5.95364H100.409C100.767 5.1349 101.497 4.64333 102.606 4.64333C104.25 4.64333 105.156 5.62969 105.156 7.38161V12.149H103.702V7.74586C103.702 6.56287 103.19 5.97298 102.113 5.97298C101.038 5.97298 100.355 6.69019 100.355 7.83934V12.1474H98.9009V4.78354Z" fill="white"/>
<path d="M110.969 10.0651C110.969 8.74028 111.956 7.97472 113.708 7.86673L115.705 7.7523V7.11568C115.705 6.33884 115.19 5.89884 114.196 5.89884C113.384 5.89884 112.821 6.19701 112.66 6.71759H111.253C111.403 5.4524 112.592 4.64171 114.262 4.64171C116.109 4.64171 117.15 5.56038 117.15 7.11568V12.1474H115.751V11.1143H115.637C115.197 11.8509 114.393 12.2715 113.426 12.2715C112.004 12.2715 110.969 11.4109 110.969 10.0651ZM115.705 9.43654V8.82086L113.906 8.93529C112.891 9.00299 112.431 9.34789 112.431 9.99741C112.431 10.6598 113.005 11.045 113.798 11.045C114.892 11.0466 115.705 10.3488 115.705 9.43654Z" fill="white"/>
<path d="M125.628 12.1474H124.227V10.9789H124.113C123.755 11.8186 123.004 12.2893 121.889 12.2893C120.258 12.2893 119.352 11.2964 119.352 9.56547V4.78354H120.806V9.18672C120.806 10.3762 121.286 10.9451 122.354 10.9451C123.531 10.9451 124.174 10.2488 124.174 9.09324V4.78354H125.628V12.1474Z" fill="white"/>
<path d="M128.645 6.04067H127.435V4.81577H128.645V4.10017C128.645 2.59806 129.464 1.97755 130.998 1.97755C131.283 1.97755 131.499 1.99851 131.783 2.04525V3.2089C131.641 3.1815 131.383 3.1541 131.141 3.1541C130.444 3.1541 130.079 3.47161 130.079 4.19526V4.81738H131.723V6.04228H130.1V12.149H128.647L128.645 6.04067Z" fill="white"/>
</g>
<defs>
<clipPath id="clip0_132_200">
<rect width="200" height="43.1551" fill="white"/>
</clipPath>
</defs>
</svg>
