<svg width="947" height="294" viewBox="0 0 947 294" fill="none" xmlns="http://www.w3.org/2000/svg">
<g clip-path="url(#clip0_2_175)">
<path d="M729.405 188.092H562.686V201.282H729.405V188.092Z" fill="#981711"/>
<path d="M506.958 280.576L554.303 211.524H534.744L506.958 280.576Z" fill="#981711"/>
<path d="M516.582 232.938H495.16L513.478 188.092H534.9L516.582 232.938Z" fill="#981711"/>
<path d="M491.434 188.092H324.715V201.282H491.434V188.092Z" fill="#981711"/>
<path d="M447.349 50.6077L421.891 87.539L396.433 50.6077H447.349Z" fill="#981711"/>
<path d="M859.334 54.7974L866.009 62.2457V137.66V157.368H917.546V133.005H889.139V78.3839H917.546V54.7974H886.5H859.334Z" fill="#981711"/>
<path d="M755.639 54.7974V154.575L744.462 166.988V199.11L779.7 160.471V157.678V135.178L795.378 116.557L823.631 157.678H850.331L810.281 99.022L847.071 54.7974H755.639ZM779.855 103.522V78.6942H800.501L779.855 103.522Z" fill="#981711"/>
<path d="M674.764 121.523L688.114 102.126L701.464 121.523H674.764Z" fill="#981711"/>
<path d="M671.659 44.4007L681.128 20.8142H695.099L745.86 146.195L725.214 157.368L688.113 65.6596L685.319 72.4873L651.013 157.368L630.367 146.195L639.526 123.54L671.659 44.4007Z" fill="#981711"/>
<path d="M520.929 54.7974L527.914 62.5561V137.66V157.368H579.451V133.005H551.044V117.953H579.451V94.212H551.044V78.2287H579.451V54.7974H548.25H520.929Z" fill="#981711"/>
<path d="M454.644 133.471H496.712L483.362 113.764H508.82L518.755 129.592L500.127 157.213H449.677L430.428 128.971L483.983 50.7629L497.178 72.7977L454.644 133.471Z" fill="#981711"/>
<path d="M382.772 157.057L394.57 139.988L406.367 157.057H435.551L362.903 50.4526L308.727 129.126L328.286 156.902L377.805 157.057H382.772ZM333.253 133.316L362.747 93.901L380.599 119.971L370.975 133.471L333.253 133.316Z" fill="#981711"/>
<path d="M317.73 77.7633H297.86V154.419L308.882 166.833V198.955L273.644 160.316V77.7633H253.774V54.6423H317.73V77.7633Z" fill="#981711"/>
<path d="M260.605 157.213H204.566V62.5562L197.581 54.6423H227.851V133.471H260.605V157.213Z" fill="#981711"/>
<path d="M172.588 54.7974H160.324H139.368H127.105L113.444 74.5045V109.884V133.936V137.505L127.105 157.212H139.368H160.324H172.588L186.248 137.505V133.936V109.884V74.5045L172.588 54.7974ZM163.119 133.005H160.324H139.368H136.574V78.3839H139.368H160.324H163.119V133.005Z" fill="#981711"/>
<path d="M108.788 54.6422L118.101 31.9868L97.3 20.8142L62.994 105.695L60.2 112.522L23.0995 20.8142L2.45361 31.9868L53.214 157.368H67.185L76.81 133.781L108.943 54.7974L108.788 54.6422Z" fill="#981711"/>
<path d="M730.958 202.834H561.134V186.541H730.958V202.834ZM564.238 199.73H727.853V189.644H564.238V199.73Z" fill="url(#paint0_linear_2_175)"/>
<path d="M500.127 293.145L533.658 209.972H557.098L500.127 293.145ZM535.831 213.075L513.633 268.007L551.354 213.075H535.831Z" fill="url(#paint1_linear_2_175)"/>
<path d="M517.669 234.489H492.987L512.391 186.541H537.228L517.669 234.489ZM497.489 231.386H515.495L532.416 189.644H514.409L497.489 231.386Z" fill="url(#paint2_linear_2_175)"/>
<path d="M492.987 202.834H323.163V186.541H492.987V202.834ZM326.268 199.73H489.882V189.644H326.268V199.73Z" fill="url(#paint3_linear_2_175)"/>
<path d="M421.891 90.332L393.483 49.0559H450.298L421.891 90.332ZM399.382 52.1594L421.891 84.901L444.399 52.1594H399.382Z" fill="url(#paint4_linear_2_175)"/>
<path d="M919.098 158.919H864.457V62.8664L855.764 53.2456H919.098V79.9356H890.691V131.454H919.098V158.919ZM867.561 155.816H915.994V134.557H887.586V76.8321H915.994V56.3491H862.749L867.561 61.625V155.816Z" fill="url(#paint5_linear_2_175)"/>
<path d="M743.065 203.144V166.368L754.242 153.954V53.2456H850.641L812.299 99.177L853.435 159.23H823.01L795.534 119.04L781.563 135.643V161.092L743.065 203.144ZM746.17 167.609V195.23L778.303 160.006V134.712L795.689 114.074L824.562 156.281H847.537L808.418 99.177L843.811 56.5043H757.191V155.35L746.17 167.609ZM778.303 107.867V77.1425H803.761L778.303 107.867ZM781.408 80.246V99.177L797.241 80.246H781.408Z" fill="url(#paint6_linear_2_175)"/>
<path d="M704.413 123.074H671.814L688.113 99.333L704.413 123.074ZM677.713 119.971H698.514L688.113 104.764L677.713 119.971Z" fill="url(#paint7_linear_2_175)"/>
<path d="M724.438 159.54L688.113 69.8494L686.872 73.1081L651.789 159.54L628.349 146.971L680.041 19.4177H696.03L696.496 20.3488L747.878 146.971L724.438 159.54ZM632.385 145.575L650.237 155.195L688.113 61.6252L725.99 155.195L743.842 145.575L694.012 22.5212H682.215L632.385 145.575Z" fill="url(#paint8_linear_2_175)"/>
<path d="M581.004 158.919H526.362V63.0216L517.514 53.2456H581.004V79.7804H552.596V92.505H581.004V119.35H552.596V131.454H581.004V158.919ZM529.467 155.816H577.899V134.557H549.491V116.402H577.899V95.763H549.491V76.6769H577.899V56.3491H524.499L529.467 61.7802V155.816Z" fill="url(#paint9_linear_2_175)"/>
<path d="M500.904 158.764H448.746L428.565 128.971L484.138 47.8147L499.041 72.7978L457.594 131.919H493.763L480.568 112.212H509.752L520.618 129.592L500.904 158.764ZM450.453 155.661H499.196L516.892 129.436L508.044 115.316H486.312L499.506 135.023H451.54L495.16 72.6426L483.828 53.5562L432.291 128.971L450.453 155.661Z" fill="url(#paint10_linear_2_175)"/>
<path d="M438.5 158.764H405.591L394.57 142.937L383.548 158.764L327.354 158.609L306.708 129.281L362.902 47.8147L438.5 158.764ZM407.144 155.661H432.602L362.902 53.401L310.589 129.281L329.062 155.506L381.996 155.661L394.57 137.505L407.144 155.661ZM371.751 134.868L329.993 134.712L362.592 91.108L382.306 119.816L371.751 134.868ZM336.358 131.764H370.198L378.736 119.816L362.747 96.539L336.358 131.764Z" fill="url(#paint11_linear_2_175)"/>
<path d="M310.434 202.989L272.092 160.937V79.3151H252.222V53.0906H319.282V79.3151H299.413V153.799L310.589 166.213V202.989H310.434ZM275.196 159.695L307.329 194.92V167.299L296.153 154.885V76.2116H316.022V56.1941H255.172V76.2116H275.196V159.695Z" fill="url(#paint12_linear_2_175)"/>
<path d="M203.013 158.764V63.1768L194.165 53.2456H229.403V132.074H262.157V158.764H203.013ZM201.15 56.1939L206.118 61.9354V155.661H259.052V135.023H226.298V56.1939H201.15Z" fill="url(#paint13_linear_2_175)"/>
<path d="M173.364 158.919H126.484L112.047 138.126V74.039L126.484 53.2456H173.364L187.801 74.039V138.126L173.364 158.919ZM128.036 155.816H171.656L184.696 137.195V75.1252L171.656 56.5043H128.036L114.997 75.1252V137.195L128.036 155.816ZM164.671 134.557H135.177V76.8321H164.671V134.557ZM138.282 131.454H161.566V79.9356H138.282V131.454Z" fill="url(#paint14_linear_2_175)"/>
<path d="M68.272 158.919H52.284L51.818 157.988L0.436035 31.211L23.8761 18.6418L60.2 108.333L61.442 105.074L96.525 18.6418L119.965 31.211L110.806 53.8664L110.34 55.263L68.272 158.919ZM54.302 155.816H66.099L75.258 133.316L106.925 55.4182L107.391 54.1768L116.084 32.7627L98.232 22.9867L60.2 116.557L22.3237 22.9867L4.47213 32.7627L54.302 155.816Z" fill="url(#paint15_linear_2_175)"/>
<path d="M926.234 6.3306H932.847C934.917 6.3306 936.435 6.7742 937.403 7.6613C938.398 8.5484 938.895 9.8253 938.895 11.4919C938.895 12.9973 938.505 14.1263 937.726 14.879C936.946 15.6317 935.965 16.0753 934.782 16.2097L939.258 23.4677H935.952L931.677 16.4516H929.379V23.4677H926.234V6.3306ZM929.379 13.7903H931.677C932.161 13.7903 932.645 13.7769 933.129 13.75C933.613 13.6962 934.043 13.5887 934.419 13.4274C934.823 13.2661 935.145 13.0242 935.387 12.7016C935.629 12.379 935.75 11.9355 935.75 11.371C935.75 10.8065 935.629 10.3629 935.387 10.0403C935.145 9.7177 934.823 9.4758 934.419 9.3145C934.043 9.1532 933.613 9.0591 933.129 9.0323C932.645 9.0054 932.161 8.9919 931.677 8.9919H929.379V13.7903ZM917 15C917 12.9301 917.39 10.9946 918.169 9.1935C918.976 7.3656 920.051 5.7796 921.395 4.4355C922.766 3.0645 924.352 1.9892 926.153 1.2097C927.981 0.4032 929.93 0 932 0C934.07 0 936.005 0.4032 937.806 1.2097C939.634 1.9892 941.22 3.0645 942.565 4.4355C943.94 5.7796 945.01 7.3656 945.79 9.1935C946.6 10.9946 947 12.9301 947 15C947 17.0699 946.6 19.0188 945.79 20.8468C945.01 22.6478 943.94 24.2339 942.565 25.6048C941.22 26.9489 939.634 28.0242 937.806 28.8306C936.005 29.6102 934.07 30 932 30C929.93 30 927.981 29.6102 926.153 28.8306C924.352 28.0242 922.766 26.9489 921.395 25.6048C920.051 24.2339 918.976 22.6478 918.169 20.8468C917.39 19.0188 917 17.0699 917 15ZM919.661 15C919.661 16.6935 919.984 18.293 920.629 19.7984C921.274 21.3038 922.148 22.621 923.25 23.75C924.379 24.8522 925.696 25.7258 927.202 26.371C928.707 27.0161 930.306 27.3387 932 27.3387C933.694 27.3387 935.293 27.0161 936.798 26.371C938.304 25.7258 939.608 24.8522 940.71 23.75C941.839 22.621 942.726 21.3038 943.37 19.7984C944.02 18.293 944.34 16.6935 944.34 15C944.34 13.3065 944.02 11.707 943.37 10.2016C942.726 8.6962 941.839 7.3925 940.71 6.2903C939.608 5.1613 938.304 4.2742 936.798 3.629C935.293 2.9839 933.694 2.6613 932 2.6613C930.306 2.6613 928.707 2.9839 927.202 3.629C925.696 4.2742 924.379 5.1613 923.25 6.2903C922.148 7.3925 921.274 8.6962 920.629 10.2016C919.984 11.707 919.661 13.3065 919.661 15Z" fill="url(#paint16_linear_2_175)"/>
</g>
<defs>
<linearGradient id="paint0_linear_2_175" x1="561.173" y1="194.755" x2="731.029" y2="194.755" gradientUnits="userSpaceOnUse">
<stop stop-color="#E7E3E0"/>
<stop offset="0.0616478" stop-color="#D9D5D4"/>
<stop offset="0.1794" stop-color="#B4B0B3"/>
<stop offset="0.264" stop-color="#989398"/>
<stop offset="0.5225" stop-color="#F8F8F8"/>
<stop offset="0.5875" stop-color="#E9E8E9"/>
<stop offset="0.7124" stop-color="#C3C0C3"/>
<stop offset="0.8764" stop-color="#8C878A"/>
<stop offset="1" stop-color="#B2B2B2"/>
</linearGradient>
<linearGradient id="paint1_linear_2_175" x1="500.155" y1="251.498" x2="557.184" y2="251.498" gradientUnits="userSpaceOnUse">
<stop stop-color="#E7E3E0"/>
<stop offset="0.0616478" stop-color="#D9D5D4"/>
<stop offset="0.1794" stop-color="#B4B0B3"/>
<stop offset="0.264" stop-color="#989398"/>
<stop offset="0.5225" stop-color="#F8F8F8"/>
<stop offset="0.5875" stop-color="#E9E8E9"/>
<stop offset="0.7124" stop-color="#C3C0C3"/>
<stop offset="0.8764" stop-color="#8C878A"/>
<stop offset="1" stop-color="#B2B2B2"/>
</linearGradient>
<linearGradient id="paint2_linear_2_175" x1="492.913" y1="210.564" x2="537.159" y2="210.564" gradientUnits="userSpaceOnUse">
<stop stop-color="#E7E3E0"/>
<stop offset="0.0616478" stop-color="#D9D5D4"/>
<stop offset="0.1794" stop-color="#B4B0B3"/>
<stop offset="0.264" stop-color="#989398"/>
<stop offset="0.5225" stop-color="#F8F8F8"/>
<stop offset="0.5875" stop-color="#E9E8E9"/>
<stop offset="0.7124" stop-color="#C3C0C3"/>
<stop offset="0.8764" stop-color="#8C878A"/>
<stop offset="1" stop-color="#B2B2B2"/>
</linearGradient>
<linearGradient id="paint3_linear_2_175" x1="323.091" y1="194.755" x2="492.946" y2="194.755" gradientUnits="userSpaceOnUse">
<stop stop-color="#E7E3E0"/>
<stop offset="0.0616478" stop-color="#D9D5D4"/>
<stop offset="0.1794" stop-color="#B4B0B3"/>
<stop offset="0.264" stop-color="#989398"/>
<stop offset="0.5225" stop-color="#F8F8F8"/>
<stop offset="0.5875" stop-color="#E9E8E9"/>
<stop offset="0.7124" stop-color="#C3C0C3"/>
<stop offset="0.8764" stop-color="#8C878A"/>
<stop offset="1" stop-color="#B2B2B2"/>
</linearGradient>
<linearGradient id="paint4_linear_2_175" x1="393.5" y1="69.6831" x2="450.353" y2="69.6831" gradientUnits="userSpaceOnUse">
<stop stop-color="#E7E3E0"/>
<stop offset="0.0616478" stop-color="#D9D5D4"/>
<stop offset="0.1794" stop-color="#B4B0B3"/>
<stop offset="0.264" stop-color="#989398"/>
<stop offset="0.5225" stop-color="#F8F8F8"/>
<stop offset="0.5875" stop-color="#E9E8E9"/>
<stop offset="0.7124" stop-color="#C3C0C3"/>
<stop offset="0.8764" stop-color="#8C878A"/>
<stop offset="1" stop-color="#B2B2B2"/>
</linearGradient>
<linearGradient id="paint5_linear_2_175" x1="855.764" y1="106.101" x2="919.146" y2="106.101" gradientUnits="userSpaceOnUse">
<stop stop-color="#E7E3E0"/>
<stop offset="0.0616478" stop-color="#D9D5D4"/>
<stop offset="0.1794" stop-color="#B4B0B3"/>
<stop offset="0.264" stop-color="#989398"/>
<stop offset="0.5225" stop-color="#F8F8F8"/>
<stop offset="0.5875" stop-color="#E9E8E9"/>
<stop offset="0.7124" stop-color="#C3C0C3"/>
<stop offset="0.8764" stop-color="#8C878A"/>
<stop offset="1" stop-color="#B2B2B2"/>
</linearGradient>
<linearGradient id="paint6_linear_2_175" x1="743.046" y1="128.238" x2="853.427" y2="128.238" gradientUnits="userSpaceOnUse">
<stop stop-color="#E7E3E0"/>
<stop offset="0.0616478" stop-color="#D9D5D4"/>
<stop offset="0.1794" stop-color="#B4B0B3"/>
<stop offset="0.264" stop-color="#989398"/>
<stop offset="0.5225" stop-color="#F8F8F8"/>
<stop offset="0.5875" stop-color="#E9E8E9"/>
<stop offset="0.7124" stop-color="#C3C0C3"/>
<stop offset="0.8764" stop-color="#8C878A"/>
<stop offset="1" stop-color="#B2B2B2"/>
</linearGradient>
<linearGradient id="paint7_linear_2_175" x1="671.807" y1="111.223" x2="704.454" y2="111.223" gradientUnits="userSpaceOnUse">
<stop stop-color="#E7E3E0"/>
<stop offset="0.0616478" stop-color="#D9D5D4"/>
<stop offset="0.1794" stop-color="#B4B0B3"/>
<stop offset="0.264" stop-color="#989398"/>
<stop offset="0.5225" stop-color="#F8F8F8"/>
<stop offset="0.5875" stop-color="#E9E8E9"/>
<stop offset="0.7124" stop-color="#C3C0C3"/>
<stop offset="0.8764" stop-color="#8C878A"/>
<stop offset="1" stop-color="#B2B2B2"/>
</linearGradient>
<linearGradient id="paint8_linear_2_175" x1="628.395" y1="89.415" x2="747.868" y2="89.415" gradientUnits="userSpaceOnUse">
<stop stop-color="#E7E3E0"/>
<stop offset="0.0616478" stop-color="#D9D5D4"/>
<stop offset="0.1794" stop-color="#B4B0B3"/>
<stop offset="0.264" stop-color="#989398"/>
<stop offset="0.5225" stop-color="#F8F8F8"/>
<stop offset="0.5875" stop-color="#E9E8E9"/>
<stop offset="0.7124" stop-color="#C3C0C3"/>
<stop offset="0.8764" stop-color="#8C878A"/>
<stop offset="1" stop-color="#B2B2B2"/>
</linearGradient>
<linearGradient id="paint9_linear_2_175" x1="517.487" y1="106.101" x2="581.015" y2="106.101" gradientUnits="userSpaceOnUse">
<stop stop-color="#E7E3E0"/>
<stop offset="0.0616478" stop-color="#D9D5D4"/>
<stop offset="0.1794" stop-color="#B4B0B3"/>
<stop offset="0.264" stop-color="#989398"/>
<stop offset="0.5225" stop-color="#F8F8F8"/>
<stop offset="0.5875" stop-color="#E9E8E9"/>
<stop offset="0.7124" stop-color="#C3C0C3"/>
<stop offset="0.8764" stop-color="#8C878A"/>
<stop offset="1" stop-color="#B2B2B2"/>
</linearGradient>
<linearGradient id="paint10_linear_2_175" x1="428.523" y1="103.308" x2="520.632" y2="103.308" gradientUnits="userSpaceOnUse">
<stop stop-color="#E7E3E0"/>
<stop offset="0.0616478" stop-color="#D9D5D4"/>
<stop offset="0.1794" stop-color="#B4B0B3"/>
<stop offset="0.264" stop-color="#989398"/>
<stop offset="0.5225" stop-color="#F8F8F8"/>
<stop offset="0.5875" stop-color="#E9E8E9"/>
<stop offset="0.7124" stop-color="#C3C0C3"/>
<stop offset="0.8764" stop-color="#8C878A"/>
<stop offset="1" stop-color="#B2B2B2"/>
</linearGradient>
<linearGradient id="paint11_linear_2_175" x1="306.717" y1="103.302" x2="438.471" y2="103.302" gradientUnits="userSpaceOnUse">
<stop stop-color="#E7E3E0"/>
<stop offset="0.0616478" stop-color="#D9D5D4"/>
<stop offset="0.1794" stop-color="#B4B0B3"/>
<stop offset="0.264" stop-color="#989398"/>
<stop offset="0.5225" stop-color="#F8F8F8"/>
<stop offset="0.5875" stop-color="#E9E8E9"/>
<stop offset="0.7124" stop-color="#C3C0C3"/>
<stop offset="0.8764" stop-color="#8C878A"/>
<stop offset="1" stop-color="#B2B2B2"/>
</linearGradient>
<linearGradient id="paint12_linear_2_175" x1="252.211" y1="128.058" x2="319.269" y2="128.058" gradientUnits="userSpaceOnUse">
<stop stop-color="#E7E3E0"/>
<stop offset="0.0616478" stop-color="#D9D5D4"/>
<stop offset="0.1794" stop-color="#B4B0B3"/>
<stop offset="0.264" stop-color="#989398"/>
<stop offset="0.5225" stop-color="#F8F8F8"/>
<stop offset="0.5875" stop-color="#E9E8E9"/>
<stop offset="0.7124" stop-color="#C3C0C3"/>
<stop offset="0.8764" stop-color="#8C878A"/>
<stop offset="1" stop-color="#B2B2B2"/>
</linearGradient>
<linearGradient id="paint13_linear_2_175" x1="194.2" y1="105.936" x2="262.16" y2="105.936" gradientUnits="userSpaceOnUse">
<stop stop-color="#E7E3E0"/>
<stop offset="0.0616478" stop-color="#D9D5D4"/>
<stop offset="0.1794" stop-color="#B4B0B3"/>
<stop offset="0.264" stop-color="#989398"/>
<stop offset="0.5225" stop-color="#F8F8F8"/>
<stop offset="0.5875" stop-color="#E9E8E9"/>
<stop offset="0.7124" stop-color="#C3C0C3"/>
<stop offset="0.8764" stop-color="#8C878A"/>
<stop offset="1" stop-color="#B2B2B2"/>
</linearGradient>
<linearGradient id="paint14_linear_2_175" x1="112.002" y1="106.101" x2="187.852" y2="106.101" gradientUnits="userSpaceOnUse">
<stop stop-color="#E7E3E0"/>
<stop offset="0.0616478" stop-color="#D9D5D4"/>
<stop offset="0.1794" stop-color="#B4B0B3"/>
<stop offset="0.264" stop-color="#989398"/>
<stop offset="0.5225" stop-color="#F8F8F8"/>
<stop offset="0.5875" stop-color="#E9E8E9"/>
<stop offset="0.7124" stop-color="#C3C0C3"/>
<stop offset="0.8764" stop-color="#8C878A"/>
<stop offset="1" stop-color="#B2B2B2"/>
</linearGradient>
<linearGradient id="paint15_linear_2_175" x1="0.511835" y1="88.778" x2="119.986" y2="88.778" gradientUnits="userSpaceOnUse">
<stop stop-color="#E7E3E0"/>
<stop offset="0.0616478" stop-color="#D9D5D4"/>
<stop offset="0.1794" stop-color="#B4B0B3"/>
<stop offset="0.264" stop-color="#989398"/>
<stop offset="0.5225" stop-color="#F8F8F8"/>
<stop offset="0.5875" stop-color="#E9E8E9"/>
<stop offset="0.7124" stop-color="#C3C0C3"/>
<stop offset="0.8764" stop-color="#8C878A"/>
<stop offset="1" stop-color="#B2B2B2"/>
</linearGradient>
<linearGradient id="paint16_linear_2_175" x1="917" y1="15.0054" x2="947.02" y2="15.0054" gradientUnits="userSpaceOnUse">
<stop stop-color="#E7E3E0"/>
<stop offset="0.0616478" stop-color="#D9D5D4"/>
<stop offset="0.1794" stop-color="#B4B0B3"/>
<stop offset="0.264" stop-color="#989398"/>
<stop offset="0.5225" stop-color="#F8F8F8"/>
<stop offset="0.5875" stop-color="#E9E8E9"/>
<stop offset="0.7124" stop-color="#C3C0C3"/>
<stop offset="0.8764" stop-color="#8C878A"/>
<stop offset="1" stop-color="#B2B2B2"/>
</linearGradient>
<clipPath id="clip0_2_175">
<rect width="947" height="294" fill="white"/>
</clipPath>
</defs>
</svg>
