<svg width="200" height="44" viewBox="0 0 200 44" fill="none" xmlns="http://www.w3.org/2000/svg">
<g clip-path="url(#clip0_132_226)">
<path d="M61.5121 32.911H53.8776L52.0454 38.3245H48.8112L56.0431 18.2954H59.4022L66.6341 38.3246H63.3444L61.5121 32.911ZM54.6688 30.4125H60.7209L57.7366 21.6268H57.6532L54.6688 30.4125Z" fill="white"/>
<path d="M82.2361 31.0233C82.2361 35.5632 79.807 38.4782 76.1424 38.4782C75.214 38.527 74.2906 38.3134 73.478 37.8616C72.6654 37.4099 71.9965 36.7384 71.5479 35.9241H71.4785V43.1551H68.4802V23.722H71.3813V26.152H71.4368C71.9057 25.3412 72.5859 24.6727 73.4048 24.218C74.2237 23.7633 75.1507 23.5394 76.0869 23.5702C79.7931 23.5702 82.2361 26.4981 82.2361 31.0233ZM79.1545 31.0233C79.1545 28.0676 77.6276 26.1243 75.2957 26.1243C73.0053 26.1243 71.4646 28.1083 71.4646 31.0233C71.4646 33.966 73.0054 35.9371 75.2957 35.9371C77.6277 35.9371 79.1545 34.0086 79.1545 31.0233Z" fill="white"/>
<path d="M98.2962 31.0233C98.2962 35.5632 95.867 38.4782 92.2025 38.4782C91.2741 38.527 90.3507 38.3134 89.5381 37.8616C88.7255 37.4099 88.0566 36.7384 87.608 35.9241H87.5386V43.1551H84.5403V23.722H87.4414V26.152H87.497C87.9658 25.3412 88.646 24.6727 89.4649 24.218C90.2839 23.7633 91.2108 23.5394 92.147 23.5702C95.8532 23.5702 98.2962 26.4981 98.2962 31.0233ZM95.2146 31.0233C95.2146 28.0676 93.6877 26.1243 91.3557 26.1243C89.0654 26.1243 87.5246 28.1083 87.5246 31.0233C87.5246 33.966 89.0654 35.9371 91.3557 35.9371C93.6878 35.9371 95.2146 34.0086 95.2146 31.0233Z" fill="white"/>
<path d="M100.712 18.2955H103.71V38.3246H100.712V18.2955Z" fill="white"/>
<path d="M119.312 34.0363C118.909 36.6866 116.327 38.506 113.024 38.506C108.776 38.506 106.139 35.6595 106.139 31.0936C106.139 26.5129 108.79 23.5424 112.899 23.5424C116.938 23.5424 119.478 26.3186 119.478 30.7457V31.7729H109.165V31.9542C109.117 32.4917 109.185 33.0331 109.362 33.5426C109.54 34.052 109.824 34.5179 110.195 34.9091C110.567 35.3003 111.018 35.608 111.517 35.8118C112.017 36.0155 112.554 36.1106 113.093 36.0907C113.802 36.1568 114.513 35.9926 115.12 35.6225C115.728 35.2524 116.2 34.6961 116.466 34.0363H119.312ZM109.179 29.6778H116.48C116.507 29.1945 116.434 28.7109 116.265 28.2573C116.096 27.8037 115.836 27.3898 115.499 27.0417C115.163 26.6936 114.759 26.4188 114.311 26.2345C113.864 26.0502 113.383 25.9604 112.899 25.9707C112.411 25.9677 111.927 26.0615 111.475 26.2466C111.023 26.4316 110.612 26.7044 110.266 27.049C109.921 27.3937 109.646 27.8034 109.46 28.2546C109.273 28.7058 109.178 29.1895 109.179 29.6778Z" fill="white"/>
<path d="M145.337 38.3246V23.5831H145.241L139.202 38.1728H136.898L130.846 23.5831H130.75V38.3246H127.918V18.2955H131.512L137.995 34.1048H138.106L144.575 18.2955H148.184V38.3246H145.337Z" fill="white"/>
<path d="M164.149 38.3246H161.276V35.8131H161.206C160.82 36.6718 160.178 37.3903 159.368 37.8697C158.558 38.3492 157.619 38.5663 156.681 38.4911C155.973 38.5322 155.266 38.4184 154.607 38.1576C153.948 37.8969 153.354 37.4954 152.866 36.9813C152.378 36.4672 152.009 35.8529 151.783 35.1812C151.558 34.5095 151.481 33.7967 151.56 33.0924V23.722H154.558V32.5094C154.482 32.9489 154.507 33.3999 154.633 33.8278C154.759 34.2557 154.981 34.6491 155.283 34.9776C155.584 35.306 155.957 35.5609 156.373 35.7224C156.789 35.884 157.236 35.9479 157.68 35.9093C158.167 35.9253 158.651 35.836 159.1 35.6476C159.549 35.4592 159.952 35.1761 160.281 34.8177C160.611 34.4592 160.859 34.0338 161.009 33.5706C161.159 33.1074 161.207 32.6173 161.15 32.1337V23.722H164.149L164.149 38.3246Z" fill="white"/>
<path d="M172.675 23.5554C175.908 23.5554 178.227 25.3469 178.296 27.9288H175.479C175.426 27.6024 175.31 27.2897 175.136 27.0084C174.962 26.7272 174.735 26.4829 174.467 26.2895C174.199 26.0962 173.895 25.9575 173.573 25.8815C173.252 25.8056 172.918 25.7937 172.592 25.8466C170.967 25.8466 169.884 26.5962 169.884 27.7344C169.884 28.608 170.606 29.191 172.12 29.5667L174.576 30.1349C177.519 30.8437 178.629 31.9264 178.629 34.0641C178.629 36.7014 176.131 38.5059 172.564 38.5059C169.122 38.5059 166.803 36.7421 166.581 34.077H169.551C169.688 34.7779 170.096 35.3966 170.686 35.7994C171.275 36.2022 172 36.3567 172.703 36.2295C174.493 36.2295 175.618 35.4929 175.618 34.3269C175.618 33.4256 175.063 32.9388 173.536 32.5501L170.926 31.9116C168.289 31.2731 166.956 29.9276 166.956 27.901C166.956 25.3192 169.273 23.5554 172.675 23.5554Z" fill="white"/>
<path d="M180.965 19.8779C180.958 19.5316 181.054 19.1911 181.241 18.8998C181.429 18.6086 181.699 18.3798 182.017 18.2427C182.335 18.1056 182.687 18.0664 183.027 18.1302C183.368 18.194 183.681 18.3578 183.928 18.6007C184.175 18.8437 184.344 19.1547 184.413 19.494C184.482 19.8334 184.449 20.1857 184.317 20.5059C184.185 20.8262 183.961 21.0998 183.672 21.2919C183.384 21.484 183.045 21.5858 182.699 21.5843C182.473 21.5869 182.248 21.5447 182.039 21.4601C181.829 21.3756 181.638 21.2505 181.477 21.0919C181.316 20.9333 181.187 20.7444 181.1 20.536C181.012 20.3277 180.966 20.104 180.965 19.8779ZM181.2 23.722H184.198V38.3246H181.2V23.722Z" fill="white"/>
<path d="M197.113 28.7468C196.981 27.948 196.555 27.2277 195.917 26.7289C195.279 26.2301 194.477 25.9892 193.67 26.0539C191.366 26.0539 189.839 27.9843 189.839 31.0233C189.839 34.1326 191.379 36.0074 193.698 36.0074C194.494 36.0866 195.291 35.8593 195.925 35.3716C196.56 34.884 196.985 34.1728 197.113 33.383H200C199.82 34.8932 199.058 36.2737 197.876 37.2305C196.694 38.1873 195.185 38.645 193.67 38.5059C189.506 38.5059 186.786 35.6594 186.786 31.0233C186.786 26.4852 189.506 23.5424 193.643 23.5424C195.168 23.4132 196.684 23.885 197.866 24.8572C199.048 25.8295 199.804 27.2252 199.972 28.7468H197.113Z" fill="white"/>
<path d="M39.7526 5.40434C39.2609 4.23824 38.5173 3.1953 37.5753 2.35021C36.6333 1.50512 35.516 0.878776 34.3036 0.516039C32.7019 0.115729 31.0521 -0.0579907 29.4021 -4.50306e-05H11.1526C9.50267 -0.0579749 7.85279 0.115761 6.25114 0.516087C5.0387 0.878824 3.92145 1.50516 2.97942 2.35026C2.03739 3.19535 1.29387 4.23829 0.802117 5.40439C0.184245 7.25496 -0.0876839 9.20347 -7.63137e-05 11.1525V29.4022C-0.0876899 31.3512 0.184239 33.2997 0.802117 35.1503C1.29387 36.3164 2.03739 37.3594 2.97942 38.2045C3.92145 39.0496 5.0387 39.6759 6.25114 40.0386C7.85279 40.439 9.50267 40.6127 11.1526 40.5548H29.4021C31.0521 40.6127 32.7019 40.439 34.3036 40.0386C35.516 39.6759 36.6333 39.0496 37.5753 38.2045C38.5173 37.3594 39.2609 36.3164 39.7526 35.1503C40.3705 33.2997 40.6423 31.3512 40.5547 29.4022V11.1525C40.6423 9.20346 40.3705 7.25493 39.7526 5.40434ZM29.5847 27.8931C29.484 28.3921 29.283 28.8654 28.9939 29.2844C28.7023 29.7024 28.3238 30.0524 27.8844 30.3106C27.4474 30.5602 26.971 30.7334 26.4758 30.8228C25.7659 31.007 25.0259 31.0445 24.301 30.9329C23.7542 30.8246 23.2478 30.5675 22.8377 30.1899C22.5237 29.9068 22.2699 29.5634 22.0913 29.1802C21.9126 28.797 21.8129 28.3818 21.798 27.9593C21.7831 27.5368 21.8533 27.1156 22.0045 26.7208C22.1556 26.3259 22.3846 25.9655 22.6779 25.661C23.0474 25.2839 23.4971 24.9949 23.9935 24.8154C24.7201 24.5653 25.4663 24.3764 26.2243 24.2508C26.4865 24.198 26.7488 24.1451 27.0112 24.0921C27.3501 24.0572 27.6637 23.897 27.8906 23.6428C28.0897 23.3498 28.1764 22.9948 28.1348 22.643L28.135 13.7057C28.135 13.0222 27.8285 12.8359 27.1757 12.9613C26.7092 13.0524 16.6897 15.0731 16.6897 15.0731C16.5682 15.0799 16.4498 15.1133 16.3426 15.1708C16.2354 15.2284 16.1422 15.3087 16.0693 15.4062C15.9965 15.5036 15.946 15.6158 15.9212 15.7349C15.8964 15.854 15.898 15.9771 15.9259 16.0955L15.9261 29.1909C15.9348 29.6887 15.8896 30.1861 15.7913 30.6742C15.6905 31.1732 15.4895 31.6465 15.2004 32.0656C14.9088 32.4836 14.5303 32.8336 14.0908 33.0916C13.6542 33.3436 13.1779 33.5194 12.6822 33.6114C11.9723 33.7956 11.2323 33.8331 10.5074 33.7215C9.96 33.6106 9.45371 33.3509 9.04418 32.9711C8.42358 32.3911 8.05827 31.5886 8.02832 30.7397C7.99838 29.8907 8.30624 29.0645 8.88443 28.4422C9.25386 28.0651 9.70351 27.7761 10.2 27.5966C10.9265 27.3465 11.6727 27.1576 12.4307 27.032C12.693 26.9792 12.9553 26.9263 13.2177 26.8733C13.5565 26.8384 13.8702 26.6782 14.097 26.4241C14.3017 26.1356 14.3961 25.7833 14.3629 25.4311V10.3498C14.3619 10.2138 14.3712 10.0779 14.3909 9.94336C14.4244 9.64122 14.5689 9.36228 14.7965 9.16072C15.0151 8.98753 15.2734 8.87142 15.548 8.82283L15.5527 8.82191L27.6063 6.38999C27.7109 6.3687 28.582 6.21406 28.68 6.2055C28.8222 6.1875 28.9666 6.20312 29.1016 6.25111C29.2367 6.29909 29.3586 6.37809 29.4575 6.48176C29.5565 6.58543 29.6297 6.71087 29.6714 6.84801C29.713 6.98514 29.7219 7.13013 29.6973 7.27132L29.6979 26.4028C29.7139 26.9022 29.676 27.4019 29.5847 27.8931Z" fill="white"/>
<path d="M55.8486 12.1449H49.7622V2.38498H51.2763V10.752H55.8486L55.8486 12.1449Z" fill="white"/>
<path d="M57.6035 2.60216C57.5923 2.41375 57.6379 2.22631 57.7345 2.06414C57.8311 1.90197 57.9741 1.77255 58.1451 1.69266C58.3161 1.61276 58.5072 1.58608 58.6935 1.61606C58.8799 1.64604 59.0529 1.7313 59.1903 1.8608C59.3276 1.9903 59.4228 2.15805 59.4637 2.34233C59.5045 2.52661 59.4891 2.7189 59.4193 2.89429C59.3496 3.06968 59.2288 3.22008 59.0725 3.32599C58.9163 3.4319 58.7318 3.48844 58.5431 3.48827C58.4226 3.49422 58.3022 3.47577 58.189 3.43403C58.0759 3.39228 57.9723 3.32811 57.8845 3.24535C57.7968 3.1626 57.7267 3.06297 57.6784 2.95244C57.6301 2.84192 57.6046 2.72277 57.6035 2.60216ZM57.8207 4.77891H59.2671V12.1449H57.8207V4.77891Z" fill="white"/>
<path d="M64.299 4.63727C64.9555 4.53055 65.6275 4.6885 66.1678 5.07648C66.708 5.46445 67.0723 6.0508 67.1809 6.70698H65.788C65.6819 6.409 65.475 6.15742 65.2032 5.99564C64.9314 5.83387 64.6116 5.77206 64.2991 5.82087C63.9827 5.75936 63.6548 5.82591 63.3875 6.00592C63.1201 6.18593 62.9351 6.46468 62.8731 6.78096C62.8731 7.22167 63.2445 7.49867 64.0425 7.68124L65.267 7.96455C65.8024 7.97 66.315 8.1819 66.698 8.55606C67.0809 8.93023 67.3047 9.43777 67.3226 9.97288C67.2828 10.3287 67.171 10.6728 66.9942 10.9841C66.8173 11.2954 66.579 11.5676 66.2937 11.784C66.0084 12.0004 65.6821 12.1565 65.3346 12.2429C64.9871 12.3293 64.6257 12.3441 64.2723 12.2866C63.5938 12.4072 62.8951 12.2545 62.3289 11.8617C61.7627 11.4688 61.3749 10.8679 61.2504 10.1901H62.7031C62.8288 10.5009 63.0552 10.7604 63.346 10.9271C63.6369 11.0938 63.9753 11.1579 64.3069 11.1093C64.644 11.1823 64.9962 11.1188 65.2865 10.9326C65.5768 10.7465 65.7815 10.4529 65.8557 10.1161C65.8143 9.8606 65.6819 9.6287 65.4829 9.46322C65.2838 9.29774 65.0316 9.20987 64.7729 9.21583L63.4886 8.91836C62.9482 8.90483 62.4339 8.68373 62.0523 8.30096C61.6707 7.9182 61.4511 7.40317 61.4392 6.8628C61.4729 6.52562 61.5748 6.19879 61.7386 5.90215C61.9024 5.60551 62.1247 5.34523 62.3922 5.13712C62.6596 4.929 62.9665 4.77738 63.2943 4.69146C63.6221 4.60554 63.9639 4.5871 64.299 4.63727Z" fill="white"/>
<path d="M71.1881 2.94687V4.81354H72.784V6.03807H71.1881V9.82496C71.1575 9.97103 71.1625 10.1223 71.2028 10.266C71.2431 10.4097 71.3174 10.5416 71.4195 10.6505C71.5216 10.7594 71.6484 10.842 71.7892 10.8915C71.93 10.9409 72.0807 10.9557 72.2284 10.9346C72.4142 10.9339 72.5997 10.9223 72.784 10.9V12.1104C72.5228 12.158 72.2579 12.1832 71.9924 12.1859C70.3759 12.1859 69.7338 11.6177 69.7338 10.1965V6.03807H68.5643V4.81354H69.7338V2.94687H71.1881Z" fill="white"/>
<path d="M80.8426 10.1554C80.6448 10.8285 80.2168 11.4107 79.6334 11.8002C79.0499 12.1898 78.3482 12.3619 77.6507 12.2865C77.1655 12.2994 76.6833 12.2065 76.2376 12.0143C75.7918 11.8221 75.3933 11.5352 75.0695 11.1736C74.7458 10.812 74.5046 10.3842 74.3627 9.92003C74.2208 9.45584 74.1816 8.96635 74.2478 8.4855C74.1832 8.00323 74.223 7.5127 74.3643 7.04712C74.5057 6.58153 74.7455 6.15175 75.0674 5.78687C75.3893 5.42198 75.7859 5.13051 76.2302 4.93216C76.6745 4.73382 77.1562 4.63324 77.6428 4.63724C78.115 4.62565 78.5841 4.71737 79.0172 4.90599C79.4503 5.09461 79.8369 5.37556 80.1501 5.72921C80.4632 6.08285 80.6953 6.50064 80.8302 6.95335C80.965 7.40607 80.9993 7.88278 80.9307 8.35014V8.85695H75.7289V8.93879C75.7059 9.20912 75.7398 9.48127 75.8282 9.73775C75.9166 9.99424 76.0577 10.2294 76.2423 10.4282C76.427 10.6269 76.6512 10.7849 76.9005 10.8918C77.1498 10.9988 77.4188 11.0525 77.69 11.0494C78.0378 11.0911 78.3901 11.0283 78.702 10.8691C79.014 10.7099 79.2715 10.4615 79.4418 10.1554H80.8426ZM75.7289 7.78196H79.4497C79.4676 7.53493 79.4337 7.28687 79.3502 7.0537C79.2667 6.82053 79.1354 6.60738 78.9647 6.42792C78.7939 6.24847 78.5876 6.10667 78.3589 6.01161C78.1302 5.91655 77.8841 5.87034 77.6365 5.87593C77.3852 5.87266 77.1358 5.91971 76.903 6.01432C76.6702 6.10893 76.4587 6.24918 76.2809 6.4268C76.1031 6.60443 75.9627 6.81584 75.8679 7.04858C75.7731 7.28132 75.7258 7.53068 75.7289 7.78196Z" fill="white"/>
<path d="M82.8729 4.77891H84.2737V5.9499H84.3824C84.5663 5.52954 84.8769 5.1771 85.2708 4.94178C85.6647 4.70645 86.1223 4.59999 86.5796 4.63725C86.9379 4.61042 87.2976 4.66451 87.6322 4.7955C87.9668 4.92649 88.2676 5.13104 88.5124 5.39401C88.7572 5.65697 88.9398 5.97163 89.0466 6.31469C89.1534 6.65775 89.1816 7.02043 89.1293 7.37589V12.1449H87.675V7.74101C87.7208 7.51441 87.713 7.28024 87.6523 7.05719C87.5915 6.83413 87.4794 6.62838 87.325 6.45635C87.1705 6.28432 86.978 6.15079 86.7628 6.0664C86.5475 5.98202 86.3155 5.94912 86.0853 5.97034C85.842 5.95894 85.5991 6.00032 85.3733 6.09164C85.1474 6.18296 84.944 6.32205 84.777 6.49938C84.61 6.67671 84.4833 6.88807 84.4057 7.11896C84.3281 7.34985 84.3013 7.59481 84.3272 7.83702V12.1449H82.8729V4.77891Z" fill="white"/>
<path d="M94.9953 8.45874C94.949 7.97475 95.0043 7.48641 95.1577 7.02505C95.3112 6.56369 95.5593 6.1395 95.8863 5.77968C96.2133 5.41986 96.6119 5.13236 97.0565 4.93563C97.5012 4.73889 97.982 4.63727 98.4682 4.63727C98.9544 4.63727 99.4353 4.73889 99.8799 4.93563C100.325 5.13236 100.723 5.41986 101.05 5.77968C101.377 6.1395 101.625 6.56369 101.779 7.02505C101.932 7.48641 101.987 7.97475 101.941 8.45874C101.988 8.94322 101.934 9.43222 101.781 9.89431C101.628 10.3564 101.38 10.7814 101.052 11.1419C100.725 11.5024 100.327 11.7905 99.8815 11.9876C99.4364 12.1848 98.955 12.2866 98.4682 12.2866C97.9814 12.2866 97.5001 12.1848 97.055 11.9876C96.6099 11.7905 96.211 11.5024 95.884 11.1419C95.5569 10.7814 95.3089 10.3564 95.1558 9.89431C95.0028 9.43222 94.9481 8.94322 94.9953 8.45874ZM100.447 8.45874C100.447 6.86278 99.7297 5.92943 98.4721 5.92943C97.2067 5.92943 96.4969 6.86277 96.4969 8.45874C96.4969 10.0688 97.2067 10.9943 98.4721 10.9943C99.7297 10.9943 100.447 10.061 100.447 8.45874Z" fill="white"/>
<path d="M103.885 4.77891H105.286V5.9499H105.394C105.578 5.52954 105.889 5.1771 106.283 4.94178C106.677 4.70645 107.134 4.59999 107.591 4.63725C107.95 4.61042 108.31 4.66451 108.644 4.7955C108.979 4.92649 109.279 5.13104 109.524 5.39401C109.769 5.65697 109.952 5.97163 110.058 6.31469C110.165 6.65775 110.194 7.02043 110.141 7.37589V12.1449H108.687V7.74101C108.733 7.51441 108.725 7.28024 108.664 7.05719C108.603 6.83413 108.491 6.62838 108.337 6.45635C108.182 6.28432 107.99 6.15079 107.775 6.0664C107.559 5.98202 107.327 5.94912 107.097 5.97034C106.854 5.95894 106.611 6.00032 106.385 6.09164C106.159 6.18296 105.956 6.32205 105.789 6.49938C105.622 6.67671 105.495 6.88807 105.418 7.11896C105.34 7.34985 105.313 7.59481 105.339 7.83702V12.1449H103.885V4.77891Z" fill="white"/>
</g>
<defs>
<clipPath id="clip0_132_226">
<rect width="200" height="43.1551" fill="white"/>
</clipPath>
</defs>
</svg>
