<svg width="158" height="48" viewBox="0 0 158 48" fill="none" xmlns="http://www.w3.org/2000/svg">
<g clip-path="url(#clip0_132_198)">
<path d="M23.7413 0.0782928C10.6691 0.0782928 0.0715332 10.6756 0.0715332 23.7478C0.0715332 36.8205 10.6691 47.417 23.7413 47.417C36.8149 47.417 47.4113 36.8205 47.4113 23.7478C47.4113 10.6764 36.8149 0.0794234 23.741 0.0794234L23.7413 0.0782928ZM34.5961 34.2165C34.1721 34.9118 33.262 35.1322 32.5667 34.7054C27.0093 31.3109 20.0132 30.542 11.774 32.4245C10.98 32.6054 10.1886 32.1079 10.0077 31.3137C9.82598 30.5194 10.3215 29.728 11.1174 29.5471C20.1339 27.4872 27.8679 28.3741 34.1071 32.1871C34.8024 32.6139 35.0229 33.5212 34.5961 34.2165ZM37.4932 27.7715C36.959 28.6398 35.8228 28.914 34.955 28.3798C28.5927 24.4691 18.8942 23.3365 11.3687 25.6209C10.3927 25.9157 9.36188 25.3656 9.06566 24.3914C8.77171 23.4154 9.32202 22.3865 10.2963 22.0898C18.8925 19.4815 29.5791 20.7449 36.8855 25.2348C37.7533 25.769 38.0274 26.9049 37.4932 27.7715ZM37.742 21.0604C30.1133 16.5292 17.527 16.1126 10.2435 18.3232C9.07386 18.6779 7.83699 18.0177 7.48255 16.8481C7.12811 15.6779 7.78781 14.4419 8.95826 14.0863C17.3193 11.5481 31.2184 12.0385 40.0014 17.2525C41.0557 17.8769 41.4005 19.2356 40.7759 20.2862C40.1541 21.3382 38.7917 21.685 37.7431 21.0604H37.742ZM64.4691 21.9286C60.382 20.9541 59.6556 20.2701 59.6556 18.8328C59.6556 17.475 60.9332 16.5612 62.8354 16.5612C64.6783 16.5612 66.5042 17.2551 68.4205 18.6836C68.4771 18.7268 68.5505 18.7441 68.6212 18.7328C68.6947 18.722 68.7569 18.6827 68.7993 18.6236L70.7948 15.8107C70.8767 15.6949 70.8541 15.5352 70.7439 15.4467C68.4629 13.6171 65.8965 12.7276 62.8948 12.7276C58.4826 12.7276 55.3989 15.3757 55.3989 19.1646C55.3989 23.2277 58.0587 24.6664 62.6545 25.7769C66.5635 26.6777 67.2249 27.4324 67.2249 28.7812C67.2249 30.2764 65.8908 31.2063 63.7427 31.2063C61.3572 31.2063 59.4097 30.4007 57.2333 28.5183C57.1796 28.4702 57.1061 28.4505 57.0383 28.4533C56.9648 28.4589 56.8998 28.4929 56.8546 28.5466L54.616 31.2091C54.5227 31.3222 54.534 31.4861 54.6415 31.5822C57.174 33.8434 60.2887 35.0361 63.6523 35.0361C68.4064 35.0361 71.4788 32.4386 71.4788 28.4165C71.4872 25.0228 69.455 23.1432 64.4776 21.9323L64.4691 21.9286ZM82.2363 17.8981C80.1758 17.8981 78.4856 18.7099 77.0893 20.3732V18.501C77.0893 18.3532 76.9706 18.2327 76.8236 18.2327H73.1634C73.0164 18.2327 72.8977 18.3532 72.8977 18.501V39.3041C72.8977 39.4511 73.0164 39.5726 73.1634 39.5726H76.8236C76.9706 39.5726 77.0893 39.4511 77.0893 39.3041V32.7382C78.4856 34.3013 80.1758 35.0672 82.2363 35.0672C86.0662 35.0672 89.9441 32.1192 89.9441 26.4835C89.9498 20.8467 86.0719 17.8978 82.2392 17.8978L82.2363 17.8981ZM85.6875 26.4835C85.6875 29.3521 83.9209 31.3561 81.3884 31.3561C78.887 31.3561 76.9989 29.2617 76.9989 26.4835C76.9989 23.7051 78.887 21.6112 81.3884 21.6112C83.8785 21.611 85.6875 23.6599 85.6875 26.4835ZM99.8792 17.8981C94.947 17.8981 91.0832 21.6957 91.0832 26.5448C91.0832 31.3419 94.9216 35.0983 99.8198 35.0983C104.769 35.0983 108.644 31.3137 108.644 26.4835C108.644 21.6697 104.794 17.8987 99.8792 17.8987V17.8981ZM99.8792 31.3843C97.2562 31.3843 95.2777 29.2758 95.2777 26.4821C95.2777 23.6757 97.1884 21.6392 99.8198 21.6392C102.46 21.6392 104.45 23.7469 104.45 26.5434C104.45 29.3493 102.528 31.3843 99.8792 31.3843ZM119.176 18.2327H115.148V14.1157C115.148 13.9682 115.029 13.8478 114.882 13.8478H111.222C111.075 13.8478 110.953 13.9682 110.953 14.1157V18.2327H109.195C109.048 18.2327 108.93 18.3532 108.93 18.501V21.646C108.93 21.7935 109.048 21.9142 109.195 21.9142H110.953V30.0531C110.953 33.3403 112.59 35.0079 115.821 35.0079C117.132 35.0079 118.22 34.7365 119.246 34.1543C119.331 34.1091 119.382 34.0186 119.382 33.9225V30.9264C119.382 30.836 119.334 30.7484 119.255 30.7003C119.176 30.6495 119.077 30.6466 118.995 30.689C118.291 31.0423 117.61 31.2063 116.847 31.2063C115.674 31.2063 115.148 30.6721 115.148 29.4793V21.9156H119.176C119.323 21.9156 119.441 21.7952 119.441 21.6474V18.5027C119.447 18.3548 119.328 18.2344 119.178 18.2344L119.176 18.2327ZM133.206 18.2489V17.7432C133.206 16.2556 133.777 15.5923 135.055 15.5923C135.818 15.5923 136.431 15.7438 137.118 15.9727C137.203 15.9993 137.29 15.986 137.358 15.9354C137.429 15.8848 137.468 15.8037 137.468 15.7177V12.6341C137.468 12.5162 137.395 12.4119 137.279 12.3771C136.556 12.1615 135.628 11.9402 134.238 11.9402C130.86 11.9402 129.071 13.8435 129.071 17.4425V18.2169H127.313C127.166 18.2169 127.044 18.3373 127.044 18.4849V21.646C127.044 21.7935 127.166 21.9142 127.313 21.9142H129.071V34.4652C129.071 34.615 129.193 34.7337 129.34 34.7337H132.997C133.147 34.7337 133.266 34.615 133.266 34.4652V21.9151H136.683L141.917 34.4652C141.324 35.7823 140.739 36.0452 139.942 36.0452C139.297 36.0452 138.616 35.853 137.924 35.4714C137.859 35.4375 137.779 35.4319 137.712 35.4516C137.641 35.4771 137.582 35.528 137.553 35.5958L136.312 38.3177C136.253 38.4477 136.304 38.5975 136.428 38.6653C137.723 39.3663 138.89 39.6659 140.335 39.6659C143.037 39.6659 144.532 38.4053 145.846 35.0192L152.194 18.6152C152.228 18.5326 152.217 18.4394 152.166 18.3662C152.118 18.2935 152.036 18.2497 151.949 18.2497H148.138C148.023 18.2497 147.921 18.3223 147.884 18.4295L143.981 29.5754L139.707 18.4221C139.668 18.3184 139.569 18.2497 139.458 18.2497H133.206V18.2489ZM125.072 18.2327H121.411C121.264 18.2327 121.143 18.3532 121.143 18.501V34.4652C121.143 34.615 121.264 34.7337 121.411 34.7337H125.072C125.219 34.7337 125.34 34.615 125.34 34.4652V18.5021C125.34 18.3543 125.221 18.2339 125.072 18.2339V18.2327ZM123.263 10.9633C121.813 10.9633 120.637 12.1369 120.637 13.5866C120.637 15.0371 121.813 16.2121 123.263 16.2121C124.713 16.2121 125.886 15.0371 125.886 13.5866C125.886 12.1372 124.71 10.9633 123.263 10.9633ZM155.321 23.3659C153.873 23.3659 152.746 22.2028 152.746 20.7904C152.746 19.378 153.888 18.2017 155.335 18.2017C156.782 18.2017 157.91 19.3645 157.91 20.7757C157.91 22.1881 156.768 23.3659 155.321 23.3659ZM155.335 18.4577C154.015 18.4577 153.017 19.5064 153.017 20.7904C153.017 22.0739 154.009 23.1084 155.321 23.1084C156.64 23.1084 157.638 22.0606 157.638 20.7757C157.638 19.4922 156.646 18.4577 155.335 18.4577ZM155.906 21.0406L156.635 22.0604H156.019L155.363 21.1248H154.8V22.0604H154.286V19.3571H155.49C156.12 19.3571 156.533 19.6785 156.533 20.2195C156.536 20.6627 156.279 20.9334 155.908 21.0406H155.906ZM155.47 19.8209H154.8V20.676H155.47C155.804 20.676 156.005 20.5123 156.005 20.248C156.005 19.9699 155.804 19.8209 155.47 19.8209Z" fill="white"/>
</g>
<defs>
<clipPath id="clip0_132_198">
<rect width="158" height="47.4848" fill="white"/>
</clipPath>
</defs>
</svg>
