<svg width="204" height="39" viewBox="0 0 204 39" fill="none" xmlns="http://www.w3.org/2000/svg">
<g clip-path="url(#clip0_132_250)">
<path d="M147.62 15.9604C146.84 19.9228 146.247 24.7585 145.936 26.7547H145.717C145.467 24.696 144.875 19.8915 144.064 15.9916L142.067 6.28937H135.984V32.4641H139.758V10.888L140.133 12.9034L143.97 32.4641H147.745L151.52 12.9034L151.925 10.8766V32.4641H155.7V6.28937H149.555L147.62 15.9604Z" fill="white"/>
<path d="M165.902 28.5334C165.559 29.2509 164.81 29.7496 164.061 29.7496C163.188 29.7496 162.844 29.0634 162.844 27.3788V13.34H158.539V27.6284C158.539 31.1538 159.694 32.7758 162.252 32.7758C163.999 32.7758 165.403 31.9959 166.37 30.1242H166.464L166.838 32.4641H170.207V13.34H165.902V28.5334Z" fill="white"/>
<path d="M178.537 20.8898C177.133 19.8603 176.26 19.174 176.26 17.6766C176.26 16.6158 176.759 16.0229 177.945 16.0229C179.161 16.0229 179.567 16.8654 179.598 19.7357L183.217 19.5795C183.498 14.9312 181.969 12.9967 178.007 12.9967C174.326 12.9967 172.516 14.6504 172.516 18.0508C172.516 21.1394 174.014 22.5432 176.447 24.3839C178.537 26.0064 179.754 26.911 179.754 28.221C179.754 29.2196 179.13 29.9059 178.038 29.9059C176.759 29.9059 176.01 28.6892 176.198 26.568L172.548 26.6301C171.986 30.5921 173.577 32.9008 177.82 32.9008C181.532 32.9008 183.467 31.185 183.467 27.7534C183.467 24.6335 181.907 23.3857 178.537 20.8898Z" fill="white"/>
<path d="M189.956 13.34H185.838V32.4641H189.956V13.34Z" fill="white"/>
<path d="M187.927 5.79019C186.337 5.79019 185.588 6.38271 185.588 8.44185C185.588 10.5635 186.337 11.0938 187.927 11.0938C189.55 11.0938 190.268 10.5635 190.268 8.44185C190.268 6.47648 189.55 5.79019 187.927 5.79019Z" fill="white"/>
<path d="M203.808 25.5696L200.033 25.3822C200.033 28.7517 199.658 29.8434 198.379 29.8434C197.1 29.8434 196.882 28.6267 196.882 24.6647V20.9523C196.882 17.1149 197.131 15.8983 198.41 15.8983C199.596 15.8983 199.908 17.0524 199.908 20.609L203.652 20.3594C203.901 17.3954 203.527 15.3678 202.372 14.2134C201.53 13.3709 200.251 12.9659 198.473 12.9659C194.292 12.9659 192.576 15.2117 192.576 21.5136V24.1965C192.576 30.6862 194.043 32.7758 198.317 32.7758C200.126 32.7758 201.374 32.4016 202.216 31.5904C203.433 30.4671 203.901 28.5334 203.808 25.5696Z" fill="white"/>
<path d="M61.6715 28.9086C61.9104 28.2841 62.0302 27.2653 62.0302 25.8505V19.8908C62.0302 18.5176 61.9104 17.5146 61.6715 16.8797C61.4324 16.2452 61.0108 15.928 60.4078 15.928C59.8254 15.928 59.4138 16.2452 59.175 16.8797C58.9359 17.5146 58.8163 18.5176 58.8163 19.8908V25.8505C58.8163 27.2653 58.9305 28.2841 59.1596 28.9086C59.3883 29.5324 59.8042 29.8444 60.4078 29.8444C61.0108 29.8444 61.4324 29.5324 61.6715 28.9086ZM56.8351 31.9036C55.9719 31.3218 55.3577 30.4169 54.994 29.1894C54.6299 27.9621 54.4481 26.3292 54.4481 24.2906V21.5133C54.4481 19.4538 54.6557 17.8001 55.0719 16.5518C55.4878 15.304 56.1377 14.3944 57.0222 13.8219C57.9063 13.2503 59.0659 12.9641 60.5012 12.9641C61.9157 12.9641 63.0494 13.2553 63.9026 13.8374C64.7552 14.4198 65.3793 15.3305 65.7746 16.5676C66.1693 17.8055 66.3675 19.4538 66.3675 21.5133V24.2906C66.3675 26.3292 66.1751 27.9674 65.7901 29.2048C65.4052 30.4427 64.781 31.3477 63.918 31.9193C63.0545 32.4911 61.8845 32.7776 60.4078 32.7776C58.8892 32.7776 57.6981 32.4857 56.8351 31.9036Z" fill="white"/>
<path d="M123.654 16.2854C123.435 16.5561 123.29 16.9982 123.217 17.6116C123.144 18.2256 123.108 19.1561 123.108 20.4043V21.7772H126.259V20.4043C126.259 19.1769 126.217 18.2465 126.135 17.6116C126.051 16.977 125.901 16.5303 125.682 16.2699C125.464 16.01 125.125 15.8796 124.668 15.8796C124.21 15.8796 123.872 16.0153 123.654 16.2854ZM123.108 24.3358V25.3032C123.108 26.5306 123.144 27.4514 123.217 28.0647C123.29 28.6784 123.44 29.1255 123.67 29.4063C123.898 29.6871 124.252 29.8276 124.731 29.8276C125.375 29.8276 125.817 29.578 126.056 29.0788C126.295 28.5797 126.425 27.7476 126.446 26.5823L130.16 26.8007C130.18 26.9676 130.191 27.1964 130.191 27.4877C130.191 29.2555 129.707 30.5763 128.74 31.4504C127.773 32.3237 126.405 32.7607 124.637 32.7607C122.515 32.7607 121.027 32.0953 120.175 30.7638C119.321 29.4329 118.895 27.3734 118.895 24.5854V21.2468C118.895 18.3761 119.337 16.2807 120.222 14.9592C121.105 13.6384 122.619 12.9777 124.762 12.9777C126.238 12.9777 127.372 13.2485 128.163 13.7893C128.953 14.3304 129.509 15.1729 129.832 16.3166C130.155 17.4607 130.316 19.0419 130.316 21.0597V24.3358H123.108Z" fill="white"/>
<path d="M46.3496 23.9777L41.451 6.2854H45.7255L47.4416 14.3049C47.8786 16.2811 48.2008 17.966 48.4087 19.3597H48.534C48.6791 18.361 49.002 16.6869 49.5011 14.3358L51.2798 6.2854H55.5545L50.5931 23.9777V32.4656H46.3496V23.9777Z" fill="white"/>
<path d="M80.2706 13.3382V32.4652H76.9004L76.5259 30.1249H76.4329C75.5168 31.8935 74.1443 32.7772 72.3139 32.7772C71.0449 32.7772 70.1087 32.3614 69.5058 31.529C68.9021 30.6973 68.6008 29.3974 68.6008 27.6288V13.3382H72.9065V27.3796C72.9065 28.2324 73.0002 28.8407 73.1873 29.2049C73.3747 29.5686 73.6868 29.7508 74.1235 29.7508C74.498 29.7508 74.8567 29.6366 75.2001 29.4075C75.5434 29.1787 75.798 28.8878 75.9647 28.5337V13.3382H80.2706Z" fill="white"/>
<path d="M102.358 13.3382V32.4652H98.9875L98.6129 30.1249H98.5196C97.6039 31.8935 96.231 32.7772 94.401 32.7772C93.1319 32.7772 92.1953 32.3614 91.5925 31.529C90.9892 30.6973 90.6879 29.3974 90.6879 27.6288V13.3382H94.9935V27.3796C94.9935 28.2324 95.0873 28.8407 95.2744 29.2049C95.4618 29.5686 95.7735 29.7508 96.2105 29.7508C96.5851 29.7508 96.9438 29.6366 97.2871 29.4075C97.6304 29.1787 97.885 28.8878 98.0517 28.5337V13.3382H102.358Z" fill="white"/>
<path d="M91.9715 9.74971H87.6971V32.4652H83.4845V9.74971H79.2096V6.2861H91.9715V9.74971Z" fill="white"/>
<path d="M112.661 24.1975C112.661 25.5915 112.604 26.6836 112.49 27.4736C112.375 28.2647 112.182 28.8264 111.912 29.1589C111.642 29.4922 111.277 29.6581 110.82 29.6581C110.466 29.6581 110.139 29.5751 109.837 29.4085C109.535 29.2419 109.292 28.9927 109.104 28.6594V17.8008C109.249 17.2812 109.499 16.8546 109.853 16.5217C110.206 16.1892 110.591 16.0225 111.007 16.0225C111.444 16.0225 111.782 16.1942 112.022 16.5371C112.26 16.8804 112.427 17.4579 112.521 18.2691C112.614 19.0803 112.661 20.2348 112.661 21.7327V24.1975ZM116.608 16.3957C116.348 15.1894 115.927 14.3157 115.345 13.7745C114.762 13.2341 113.961 12.9633 112.942 12.9633C112.151 12.9633 111.413 13.187 110.727 13.6341C110.04 14.0815 109.51 14.6694 109.135 15.3973H109.104L109.104 5.31866H104.954V32.4652H108.511L108.948 30.6553H109.042C109.374 31.3006 109.873 31.8098 110.54 32.1844C111.205 32.5589 111.943 32.7457 112.755 32.7457C114.211 32.7457 115.282 32.0752 115.968 30.7336C116.655 29.3916 116.998 27.2963 116.998 24.4461V21.4195C116.998 19.2771 116.868 17.6026 116.608 16.3957Z" fill="white"/>
<path d="M18.9553 30.6216C12.5981 30.6216 7.44354 25.467 7.44354 19.1097C7.44354 12.7526 12.5981 7.59757 18.9553 7.59757C25.3125 7.59757 30.4671 12.7526 30.4671 19.1097C30.4671 25.467 25.3125 30.6216 18.9553 30.6216ZM18.9553 0.154114C8.48673 0.154114 0 8.64076 0 19.1097C0 29.5787 8.48673 38.0651 18.9553 38.0651C29.4243 38.0651 37.911 29.5787 37.911 19.1097C37.911 8.64076 29.4243 0.154114 18.9553 0.154114Z" fill="white"/>
<path d="M15.2935 24.7104V13.5092L24.9865 19.1097L15.2935 24.7104ZM18.9552 9.12805C13.4509 9.12805 8.97363 13.6055 8.97363 19.1097C8.97363 24.6141 13.4509 29.0914 18.9552 29.0914C24.4596 29.0914 28.9373 24.6141 28.9373 19.1097C28.9373 13.6055 24.4596 9.12805 18.9552 9.12805Z" fill="white"/>
</g>
<defs>
<clipPath id="clip0_132_250">
<rect width="204" height="38.0938" fill="white"/>
</clipPath>
</defs>
</svg>
